HIERARCHY
ROOT Hips
{
	OFFSET 0.000000 8.830580 0.000000
	CHANNELS 6 Xposition Yposition Zposition Zrotation Yrotation Xrotation 
	JOINT Spine
	{
		OFFSET 0.000000 0.010000 0.000000
		CHANNELS 3 Zrotation Yrotation Xrotation
		JOINT Spine1
		{
			OFFSET 0.000000 2.459130 0.000000
			CHANNELS 3 Zrotation Yrotation Xrotation
			JOINT Neck
			{
				OFFSET 0.000000 2.484630 0.000000
				CHANNELS 3 Zrotation Yrotation Xrotation
				JOINT Head_virtual
				{
					OFFSET 0.000000 0.000000 0.000000
					CHANNELS 3 Zrotation Yrotation Xrotation
					JOINT Head
					{
						OFFSET 0.000000 0.927525 0.000000
						CHANNELS 3 Zrotation Yrotation Xrotation
						End Site
						{
							OFFSET 0.000000 0.000000 0.000000
						}
					}
				}
				JOINT LeftUpArm_virtual
				{
					OFFSET 0.000000 0.000000 0.000000
					CHANNELS 3 Zrotation Yrotation Xrotation
					JOINT LeftUpArm
					{
						OFFSET 1.248820 0.000000 0.000000
						CHANNELS 3 Zrotation Yrotation Xrotation
						JOINT LeftForeArm
						{
							OFFSET 2.597580 0.000000 0.000000
							CHANNELS 3 Zrotation Yrotation Xrotation
							JOINT LeftHand
							{
								OFFSET 2.455420 0.000000 0.000000
								CHANNELS 3 Zrotation Yrotation Xrotation
								End Site
								{
									OFFSET 0.000000 0.000000 0.000000
								}
							}
						}
					}
				}
				JOINT RightUpArm_virtual
				{
					OFFSET -0.000000 -0.000000 -0.000000
					CHANNELS 3 Zrotation Yrotation Xrotation
					JOINT RightUpArm
					{
						OFFSET -1.248820 -0.000000 -0.000000
						CHANNELS 3 Zrotation Yrotation Xrotation
						JOINT RightForeArm
						{
							OFFSET -2.597580 -0.000000 -0.000000
							CHANNELS 3 Zrotation Yrotation Xrotation
							JOINT RightHand
							{
								OFFSET -2.455420 -0.000000 -0.000000
								CHANNELS 3 Zrotation Yrotation Xrotation
								End Site
								{
									OFFSET 0.000000 0.000000 0.000000
								}
							}
						}
					}
				}
			}
		}
	}
	JOINT LeftUpLeg
	{
		OFFSET 1.271939 0.000000 0.000000
		CHANNELS 3 Zrotation Yrotation Xrotation
		JOINT LeftLowLeg
		{
			OFFSET 0.000000 -4.342910 0.000000
			CHANNELS 3 Zrotation Yrotation Xrotation
			JOINT LeftFoot
			{
				OFFSET 0.000000 -4.487670 0.000000
				CHANNELS 3 Zrotation Yrotation Xrotation
				JOINT LeftToeBase
				{
					OFFSET 0.000000 0.000000 1.515070
					CHANNELS 3 Zrotation Yrotation Xrotation
					End Site
					{
						OFFSET 0.000000 0.000000 0.000000
					}
				}
			}
		}
	}
	JOINT RightUpLeg
	{
		OFFSET -1.271939 0.000000 0.000000
		CHANNELS 3 Zrotation Yrotation Xrotation
		JOINT RightLowLeg
		{
			OFFSET 0.000000 -4.342910 0.000000
			CHANNELS 3 Zrotation Yrotation Xrotation
			JOINT RightFoot
			{
				OFFSET 0.000000 -4.487670 0.000000
				CHANNELS 3 Zrotation Yrotation Xrotation
				JOINT RightToeBase
				{
					OFFSET 0.000000 0.000000 1.515070
					CHANNELS 3 Zrotation Yrotation Xrotation
					End Site
					{
						OFFSET 0.000000 0.000000 0.000000
					}
				}
			}
		}
	}
}
MOTION
Frames: 5
Frame Time: 0.041667
-17.262336 6.284055 35.897675 176.362174 7.841877 -172.270865 -2.482627 10.095950 -4.621351 -3.850227 -8.063271 3.944053 0.000000 0.000000 0.000000 7.470050 12.045443 3.554759 -8.830284 -12.569682 -80.890119 -22.022900 4.943280 7.709991 -44.758598 -4.172440 5.318310 180.000000 -77.057999 -180.000000 34.235298 33.711300 -14.826300 24.138901 -6.467070 2.072998 42.475201 4.636600 -0.253998 -180.000000 63.428001 180.000000 -23.067900 -24.685499 -36.730801 -10.673409 1.184006 -75.751593 0.000000 0.000000 75.696403 -1.924819 4.380561 3.961090 0.000000 0.000000 -41.932100 2.594754 -0.278393 -77.948869 0.000000 0.000000 79.873299 26.907161 5.229569 -1.271795 0.000000 0.000000 -24.431470 
-17.259512 6.282532 35.894991 176.548192 7.600065 -172.335139 -2.343741 10.040640 -5.084909 -3.883941 -8.179712 3.913464 0.000000 0.000000 0.000000 7.820497 11.578964 4.504351 -9.085530 -12.821972 -80.611710 -22.152399 5.035950 7.713989 -44.641998 -4.003050 5.456870 180.000000 -77.360001 -180.000000 34.268398 33.774601 -14.761600 24.477400 -6.517130 2.131989 42.747398 4.218010 -0.212006 180.000000 63.722000 180.000000 -23.219601 -24.310600 -36.722198 -10.345832 0.912253 -75.697755 0.000000 0.000000 75.601601 -1.983828 4.278200 5.022761 0.000000 0.000000 -41.837099 2.795504 -0.475314 -77.790305 0.000000 0.000000 79.757004 26.711828 4.933735 -0.669380 0.000000 0.000000 -24.287080 
-17.258815 6.279570 35.898444 176.483535 7.596328 -172.420086 -2.458921 10.031892 -5.436828 -3.879610 -8.183344 3.881169 0.000000 0.000000 0.000000 8.028585 11.178314 5.158698 -9.227662 -13.064292 -80.346652 -22.307100 5.183040 7.484009 -44.575699 -3.799510 5.621670 180.000000 -77.661003 -180.000000 34.008701 33.824600 -14.996200 24.760300 -6.512630 1.962006 42.983398 3.763690 -0.114014 -180.000000 63.948998 -180.000000 -23.311199 -24.347500 -36.106701 -10.337229 0.856258 -75.650386 0.000000 0.000000 75.318604 -0.614996 4.503767 6.899197 0.000000 0.000000 -41.743700 2.735855 -0.497300 -77.804385 0.000000 0.000000 79.631401 26.191165 4.429993 0.398290 0.000000 0.000000 -24.075470 
-17.259026 6.275482 35.903700 176.468041 7.601552 -172.481399 -2.520165 10.061167 -5.738558 -3.857842 -8.155889 3.859807 0.000000 0.000000 0.000000 8.060307 10.921823 5.689907 -9.227148 -13.319607 -80.149542 -22.387300 5.258770 7.464996 -44.609699 -3.716440 5.654790 -180.000000 -77.948998 180.000000 33.778599 33.754002 -15.218700 25.011700 -6.536910 1.944000 43.212002 3.444280 -0.217987 -180.000000 64.125000 -180.000000 -23.491400 -24.334600 -36.124802 -10.484112 0.886266 -75.672511 0.000000 0.000000 75.029404 1.834724 5.090961 8.652855 0.000000 0.000000 -41.814301 2.792291 -0.529558 -77.865174 0.000000 0.000000 79.510696 25.015935 3.695514 1.593515 0.000000 0.000000 -24.148000 
-17.260124 6.271348 35.909873 176.475521 7.625137 -172.526921 -2.568596 10.088362 -6.082825 -3.836032 -8.117568 3.996417 0.000000 0.000000 0.000000 8.101949 10.686416 6.005307 -9.346841 -13.479197 -79.917243 -22.440500 5.327150 7.285004 -44.739498 -3.643210 5.790840 180.000000 -78.208000 -180.000000 33.752800 33.747601 -15.500600 25.240999 -6.474470 1.855011 43.492199 3.100930 -0.325989 180.000000 64.289001 180.000000 -24.691401 -24.554399 -33.710899 -10.648024 0.880853 -75.704450 0.000000 0.000000 74.839104 4.092329 5.918592 9.924917 0.000000 0.000000 -42.222099 2.955029 -0.574415 -77.937569 0.000000 0.000000 79.384499 23.619102 2.820455 2.396705 0.000000 0.000000 -24.047410 
